<?xml version="1.0" encoding="UTF-8"?><svg id="Calque_2" xmlns="http://www.w3.org/2000/svg" viewBox="0 0 55 54.89"><defs><style>.cls-1{fill:#2b5183;}.cls-1,.cls-2{stroke-width:0px;}.cls-2{fill:#a6d1f1;}</style></defs><g id="Calque_1-2"><path class="cls-2" d="M13.9,13.94c0,2.43-1.97,4.4-4.41,4.4s-4.41-1.97-4.41-4.4,1.97-4.41,4.41-4.41,4.41,1.97,4.41,4.41Z"/><path class="cls-1" d="M9.5,8.53c-2.98,0-5.41,2.42-5.41,5.41s2.43,5.41,5.41,5.41,5.41-2.42,5.41-5.41-2.42-5.41-5.41-5.41ZM9.5,17.34c-1.88,0-3.41-1.53-3.41-3.4s1.53-3.4,3.41-3.4,3.4,1.53,3.4,3.4-1.53,3.4-3.4,3.4Z"/><path class="cls-1" d="M9.5,54.89c-.55,0-1-.45-1-1v-13.21c0-.55.45-1,1-1s1,.45,1,1v13.21c0,.55-.45,1-1,1Z"/><path class="cls-1" d="M4.78,54.89c-.55,0-1-.45-1-1v-14.73H1c-.55,0-1-.45-1-1v-11.01c0-1.53.59-2.96,1.68-4.04,1.08-1.08,2.52-1.68,4.04-1.68h8.13c.55,0,1,.45,1,1s-.45,1-1,1H5.72c-.99,0-1.93.39-2.63,1.09-.7.7-1.09,1.64-1.09,2.63v10.01h2.77c.55,0,1,.45,1,1v15.73c0,.55-.45,1-1,1Z"/><rect class="cls-1" x="8.5" y="25.32" width="2" height="2.07"/><path class="cls-1" d="M14.22,54.89c-.55,0-1-.45-1-1v-15.73c0-.55.45-1,1-1h3.78c.55,0,1,.45,1,1s-.45,1-1,1h-2.77v14.73c0,.55-.45,1-1,1Z"/><path class="cls-2" d="M41.1,13.94c0,2.43,1.97,4.4,4.41,4.4s4.41-1.97,4.41-4.4-1.97-4.41-4.41-4.41-4.41,1.97-4.41,4.41Z"/><path class="cls-1" d="M45.5,19.35c-2.98,0-5.41-2.42-5.41-5.41s2.42-5.41,5.41-5.41,5.41,2.42,5.41,5.41-2.42,5.41-5.41,5.41ZM45.5,10.54c-1.88,0-3.4,1.53-3.4,3.4s1.53,3.4,3.4,3.4,3.4-1.53,3.4-3.4-1.53-3.4-3.4-3.4Z"/><path class="cls-1" d="M45.5,54.89c-.55,0-1-.45-1-1v-13.21c0-.55.45-1,1-1s1,.45,1,1v13.21c0,.55-.45,1-1,1Z"/><path class="cls-1" d="M50.22,54.89c-.55,0-1-.45-1-1v-15.73c0-.55.45-1,1-1h2.78v-10.01c0-.99-.39-1.93-1.09-2.63-.7-.7-1.64-1.09-2.63-1.09h-8.13c-.55,0-1-.45-1-1s.45-1,1-1h8.13c1.53,0,2.96.6,4.04,1.68,1.08,1.08,1.68,2.52,1.68,4.04v11.01c0,.55-.45,1-1,1h-2.78v14.73c0,.55-.45,1-1,1Z"/><rect class="cls-1" x="44.5" y="25.32" width="2" height="2.07"/><path class="cls-1" d="M40.78,54.89c-.55,0-1-.45-1-1v-14.73h-2.78c-.55,0-1-.45-1-1s.45-1,1-1h3.78c.55,0,1,.45,1,1v15.73c0,.55-.45,1-1,1Z"/><circle class="cls-2" cx="27.5" cy="6.47" r="5.47" transform="translate(-.37 11.11) rotate(-22.69)"/><path class="cls-1" d="M27.5,12.93c-3.57,0-6.47-2.9-6.47-6.47S23.93,0,27.5,0s6.47,2.9,6.47,6.47-2.9,6.47-6.47,6.47ZM27.5,2c-2.46,0-4.47,2-4.47,4.47s2,4.47,4.47,4.47,4.47-2,4.47-4.47-2-4.47-4.47-4.47Z"/><path class="cls-1" d="M27.5,54.89c-.55,0-1-.45-1-1v-16.4c0-.55.45-1,1-1s1,.45,1,1v16.4c0,.55-.45,1-1,1Z"/><path class="cls-1" d="M37.03,15.85c-1.3-1.3-3.02-2.01-4.85-2.01h-.96c-.27,0-.52.11-.71.29l-3.02,3.02-3.02-3.02c-.19-.19-.44-.29-.71-.29h-.96c-1.83,0-3.55.71-4.85,2.01-1.3,1.3-2.01,3.02-2.01,4.85v13.67c0,.55.45,1,1,1h3.69v18.52c0,.55.45,1,1,1s1-.45,1-1v-22.65c0-.55-.45-1-1-1s-1,.45-1,1v2.12h-2.68v-12.67c0-1.3.51-2.52,1.42-3.43.92-.92,2.14-1.42,3.43-1.42h.54l3.44,3.44c.19.19.44.29.71.29s.52-.11.71-.29l3.44-3.44h.54c1.3,0,2.52.51,3.43,1.42.92.92,1.42,2.14,1.42,3.43v12.67h-2.68v-2.12c0-.55-.45-1-1-1s-1,.45-1,1v22.65c0,.55.45,1,1,1s1-.45,1-1v-18.52h3.69c.55,0,1-.45,1-1v-13.67c0-1.83-.71-3.55-2.01-4.85Z"/><rect class="cls-1" x="26.5" y="21.48" width="2" height="2.07"/><rect class="cls-1" x="26.5" y="25.62" width="2" height="2.07"/></g></svg>