<?xml version="1.0" encoding="UTF-8"?><svg id="Calque_2" xmlns="http://www.w3.org/2000/svg" viewBox="0 0 67.08 53.71"><defs><style>.cls-1{fill:#2b5183;}.cls-1,.cls-2{stroke-width:0px;}.cls-2{fill:#a6d1f1;}</style></defs><g id="Calque_1-2"><path class="cls-2" d="M49.22,52.71c-3.1,0-5.62-2.52-5.62-5.62H13.25c0,3.1,2.52,5.62,5.62,5.62h30.35Z"/><path class="cls-1" d="M60.46,0s0,0,0,0H25.61C21.96,0,18.99,2.97,18.99,6.62v7.53c0,.55.45,1,1,1s1-.45,1-1v-7.53c0-2.55,2.07-4.62,4.62-4.62h30.11c-1.16,1.19-1.88,2.82-1.88,4.62v40.47c0,2.55-2.07,4.62-4.62,4.62s-4.62-2.07-4.62-4.62c0-.55-.45-1-1-1h-22.61v-11.94c0-.55-.45-1-1-1s-1,.45-1,1v11.94h-5.74c-.55,0-1,.45-1,1,0,3.65,2.97,6.62,6.62,6.62h30.35c3.65,0,6.62-2.97,6.62-6.62V6.62c0-2.55,2.07-4.62,4.62-4.62,0,0,0,0,0,0,2.55,0,4.62,2.07,4.62,4.62v.12h-6.87c-.55,0-1,.45-1,1s.45,1,1,1h8.87v-2.12c0-3.65-2.97-6.62-6.62-6.62ZM18.99,51.71h-.12c-2.2,0-4.05-1.55-4.51-3.62h28.32c.21,1.4.86,2.65,1.81,3.62h-25.49Z"/><rect class="cls-1" x="30" y="6.01" width="20.23" height="2"/><rect class="cls-1" x="30" y="11.66" width="20.23" height="2"/><rect class="cls-1" x="30" y="17.3" width="20.23" height="2"/><rect class="cls-1" x="30" y="22.95" width="20.23" height="2"/><rect class="cls-1" x="34.95" y="28.6" width="15.28" height="2"/><rect class="cls-1" x="36.95" y="34.25" width="13.28" height="2"/><path class="cls-2" d="M30.16,34.59s-.57-4.82-3-7.25S7.84,8.03,7.84,8.03c-1.2-1.2-3.09-1.28-4.31-.06-1.21,1.21-1.14,3.1.06,4.31,0,0,16.89,16.89,19.31,19.31,2.43,2.43,7.25,3,7.25,3Z"/><path class="cls-1" d="M32.11,35.12l-1.01-1.01c-.19-1.21-.96-5.21-3.24-7.48L8.55,7.32c-1.62-1.62-4.13-1.65-5.72-.06-.78.78-1.19,1.8-1.17,2.89.02,1.06.46,2.06,1.23,2.83l2.35,2.35s0,0,0,0l-1.41,1.41-2.12-2.12c-.39-.39-1.02-.39-1.41,0s-.39,1.02,0,1.41l2.83,2.83s0,0,0,0,0,0,0,0l6.36,6.36c.2.2.45.29.71.29s.51-.1.71-.29c.39-.39.39-1.02,0-1.41l-5.66-5.66,1.41-1.41s0,0,0,0l15.55,15.55c2.28,2.28,6.28,3.05,7.48,3.24l1.01,1.01c.2.2.45.29.71.29s.51-.1.71-.29c.39-.39.39-1.02,0-1.41ZM4.31,11.56c-.4-.4-.63-.92-.65-1.46-.01-.53.19-1.04.58-1.43s.89-.59,1.39-.59c.53,0,1.07.22,1.5.65l2.35,2.35-2.83,2.83-2.35-2.35ZM8.07,15.32l2.83-2.83,14.85,14.85-2.83,2.83-14.85-14.85ZM24.4,31.52l2.69-2.69c.99,1.4,1.55,3.26,1.83,4.52-1.25-.28-3.11-.84-4.52-1.83Z"/></g></svg>