<?xml version="1.0" encoding="UTF-8"?><svg id="Calque_2" xmlns="http://www.w3.org/2000/svg" viewBox="0 0 46.04 54.1"><defs><style>.cls-1{fill:#2b5184;}.cls-1,.cls-2,.cls-3,.cls-4{stroke-width:0px;}.cls-2{fill:#2b5183;}.cls-3{fill:#a6d1f1;}.cls-4{fill:#fff;}</style></defs><g id="Calque_1-2"><rect class="cls-4" x="8.67" y="4.6" width="36.42" height="45"/><path class="cls-3" d="M8.67,49.6c0-1.99-1.72-3.6-3.83-3.6s-3.83,1.61-3.83,3.6,1.72,3.6,3.83,3.6h34.5v-3.6H8.67Z"/><path class="cls-2" d="M44.59,3.7H9.57c-.44-2.11-2.4-3.7-4.74-3.7C2.17,0,0,2.06,0,4.6v45.06h0c.03,2.45,2.2,4.44,4.83,4.44h35.46v-3.6h4.3c.8,0,1.45-.65,1.45-1.45V5.15c0-.8-.65-1.45-1.45-1.45ZM2,4.6c0-1.43,1.27-2.6,2.83-2.6s2.83,1.17,2.83,2.6v41.29h0c-.8-.5-1.77-.79-2.82-.79s-1.94.3-2.72.79h-.11V4.6ZM38.38,52.3H4.83c-1.59,0-2.88-1.21-2.88-2.7s1.29-2.7,2.88-2.7c1.47,0,2.7.83,2.88,2.13v.02c0,.8.65,1.45,1.45,1.45h29.21v1.8ZM44.13,47.25c0,.8-.65,1.45-1.45,1.45H11.08c-.69,0-1.26-.48-1.41-1.12V6.62c.15-.64.72-1.12,1.41-1.12h31.59c.8,0,1.45.65,1.45,1.45v40.29Z"/><path class="cls-2" d="M38.29,28.18v6.91H15.46v-6.91h22.83M40.29,26.18H13.46v10.92h26.83v-10.92h0Z"/><rect class="cls-2" x="13.46" y="9.1" width="18.21" height="1.8"/><rect class="cls-2" x="13.46" y="39.7" width="7.67" height="1.8"/><rect class="cls-2" x="23.04" y="39.7" width="17.25" height="1.8"/><rect class="cls-2" x="32.63" y="43.3" width="7.67" height="1.8"/><rect class="cls-2" x="13.46" y="43.3" width="17.25" height="1.8"/><path class="cls-1" d="M38.29,15.38v7.04H15.46v-7.04h22.83M40.29,13.38H13.46v11.04h26.83v-11.04h0Z"/></g></svg>